<svg width="247" height="17" viewBox="0 0 247 17" fill="none" xmlns="http://www.w3.org/2000/svg">
<path d="M11.7728 12.3999L15.4383 15.4999" stroke="white" stroke-opacity="0.7" stroke-width="2" stroke-linecap="round"/>
<path d="M7.4769 14C10.9945 14 13.8461 11.3137 13.8461 8C13.8461 4.68629 10.9945 2 7.4769 2C3.95927 2 1.10767 4.68629 1.10767 8C1.10767 11.3137 3.95927 14 7.4769 14Z" stroke="white" stroke-opacity="0.7" stroke-width="2"/>
<path d="M33.298 14.084C32.57 14.084 31.87 13.9673 31.198 13.734C30.5353 13.4913 30.022 13.1833 29.658 12.81L30.064 12.012C30.4093 12.348 30.8713 12.6327 31.45 12.866C32.038 13.09 32.654 13.202 33.298 13.202C33.914 13.202 34.4133 13.1273 34.796 12.978C35.188 12.8193 35.4727 12.6093 35.65 12.348C35.8367 12.0867 35.93 11.7973 35.93 11.48C35.93 11.0973 35.818 10.7893 35.594 10.556C35.3793 10.3227 35.0947 10.1407 34.74 10.01C34.3853 9.87 33.9933 9.74867 33.564 9.646C33.1347 9.54333 32.7053 9.436 32.276 9.324C31.8467 9.20267 31.45 9.044 31.086 8.848C30.7313 8.652 30.442 8.39533 30.218 8.078C30.0033 7.75133 29.896 7.32667 29.896 6.804C29.896 6.31867 30.022 5.87533 30.274 5.474C30.5353 5.06333 30.932 4.73667 31.464 4.494C31.996 4.242 32.6773 4.116 33.508 4.116C34.0587 4.116 34.6047 4.19533 35.146 4.354C35.6873 4.50333 36.154 4.71333 36.546 4.984L36.196 5.81C35.776 5.53 35.328 5.32467 34.852 5.194C34.3853 5.06333 33.9327 4.998 33.494 4.998C32.906 4.998 32.4207 5.07733 32.038 5.236C31.6553 5.39467 31.3707 5.60933 31.184 5.88C31.0067 6.14133 30.918 6.44 30.918 6.776C30.918 7.15867 31.0253 7.46667 31.24 7.7C31.464 7.93333 31.7533 8.11533 32.108 8.246C32.472 8.37667 32.8687 8.49333 33.298 8.596C33.7273 8.69867 34.152 8.81067 34.572 8.932C35.0013 9.05333 35.3933 9.212 35.748 9.408C36.112 9.59467 36.4013 9.84667 36.616 10.164C36.84 10.4813 36.952 10.8967 36.952 11.41C36.952 11.886 36.8213 12.3293 36.56 12.74C36.2987 13.1413 35.8973 13.468 35.356 13.72C34.824 13.9627 34.138 14.084 33.298 14.084ZM42.1213 14.07C41.3559 14.07 40.6839 13.9113 40.1053 13.594C39.5266 13.2673 39.0739 12.824 38.7473 12.264C38.4206 11.6947 38.2573 11.046 38.2573 10.318C38.2573 9.59 38.4113 8.946 38.7193 8.386C39.0366 7.826 39.4659 7.38733 40.0073 7.07C40.5579 6.74333 41.1739 6.58 41.8553 6.58C42.5459 6.58 43.1573 6.73867 43.6893 7.056C44.2306 7.364 44.6553 7.80267 44.9633 8.372C45.2713 8.932 45.4253 9.58067 45.4253 10.318C45.4253 10.3647 45.4206 10.416 45.4113 10.472C45.4113 10.5187 45.4113 10.57 45.4113 10.626H39.0133V9.884H44.8793L44.4873 10.178C44.4873 9.646 44.3706 9.17467 44.1373 8.764C43.9133 8.344 43.6053 8.01733 43.2133 7.784C42.8213 7.55067 42.3686 7.434 41.8553 7.434C41.3513 7.434 40.8986 7.55067 40.4973 7.784C40.0959 8.01733 39.7833 8.344 39.5593 8.764C39.3353 9.184 39.2233 9.66467 39.2233 10.206V10.36C39.2233 10.92 39.3446 11.4147 39.5873 11.844C39.8393 12.264 40.1846 12.5953 40.6233 12.838C41.0713 13.0713 41.5799 13.188 42.1493 13.188C42.5973 13.188 43.0126 13.1087 43.3953 12.95C43.7873 12.7913 44.1233 12.5487 44.4033 12.222L44.9633 12.866C44.6366 13.258 44.2259 13.5567 43.7313 13.762C43.2459 13.9673 42.7093 14.07 42.1213 14.07ZM51.8494 14V12.376L51.8074 12.11V9.394C51.8074 8.76867 51.6301 8.288 51.2754 7.952C50.9301 7.616 50.4121 7.448 49.7214 7.448C49.2454 7.448 48.7928 7.52733 48.3634 7.686C47.9341 7.84467 47.5701 8.05467 47.2714 8.316L46.8234 7.574C47.1968 7.25667 47.6448 7.014 48.1674 6.846C48.6901 6.66867 49.2408 6.58 49.8194 6.58C50.7714 6.58 51.5041 6.818 52.0174 7.294C52.5401 7.76067 52.8014 8.47467 52.8014 9.436V14H51.8494ZM49.3154 14.07C48.7648 14.07 48.2841 13.9813 47.8734 13.804C47.4721 13.6173 47.1641 13.3653 46.9494 13.048C46.7348 12.7213 46.6274 12.348 46.6274 11.928C46.6274 11.5453 46.7161 11.2 46.8934 10.892C47.0801 10.5747 47.3788 10.3227 47.7894 10.136C48.2094 9.94 48.7694 9.842 49.4694 9.842H52.0034V10.584H49.4974C48.7881 10.584 48.2934 10.71 48.0134 10.962C47.7428 11.214 47.6074 11.5267 47.6074 11.9C47.6074 12.32 47.7708 12.656 48.0974 12.908C48.4241 13.16 48.8814 13.286 49.4694 13.286C50.0294 13.286 50.5101 13.16 50.9114 12.908C51.3221 12.6467 51.6208 12.2733 51.8074 11.788L52.0314 12.474C51.8448 12.9593 51.5181 13.3467 51.0514 13.636C50.5941 13.9253 50.0154 14.07 49.3154 14.07ZM55.5012 14V6.65H56.4532V8.652L56.3552 8.302C56.5606 7.742 56.9059 7.31733 57.3912 7.028C57.8766 6.72933 58.4786 6.58 59.1972 6.58V7.546C59.1599 7.546 59.1226 7.546 59.0852 7.546C59.0479 7.53667 59.0106 7.532 58.9732 7.532C58.1986 7.532 57.5919 7.77 57.1532 8.246C56.7146 8.71267 56.4952 9.38 56.4952 10.248V14H55.5012ZM63.9946 14.07C63.2666 14.07 62.6133 13.9113 62.0346 13.594C61.4653 13.2673 61.0173 12.824 60.6906 12.264C60.364 11.6947 60.2006 11.046 60.2006 10.318C60.2006 9.58067 60.364 8.932 60.6906 8.372C61.0173 7.812 61.4653 7.37333 62.0346 7.056C62.6133 6.73867 63.2666 6.58 63.9946 6.58C64.62 6.58 65.1846 6.70133 65.6886 6.944C66.1926 7.18667 66.5893 7.55067 66.8786 8.036L66.1366 8.54C65.8846 8.16667 65.572 7.89133 65.1986 7.714C64.8253 7.53667 64.4193 7.448 63.9806 7.448C63.458 7.448 62.9866 7.56933 62.5666 7.812C62.1466 8.04533 61.8153 8.37667 61.5726 8.806C61.33 9.23533 61.2086 9.73933 61.2086 10.318C61.2086 10.8967 61.33 11.4007 61.5726 11.83C61.8153 12.2593 62.1466 12.5953 62.5666 12.838C62.9866 13.0713 63.458 13.188 63.9806 13.188C64.4193 13.188 64.8253 13.0993 65.1986 12.922C65.572 12.7447 65.8846 12.474 66.1366 12.11L66.8786 12.614C66.5893 13.09 66.1926 13.454 65.6886 13.706C65.1846 13.9487 64.62 14.07 63.9946 14.07ZM72.4739 6.58C73.0713 6.58 73.5939 6.69667 74.0419 6.93C74.4993 7.154 74.8539 7.49933 75.1059 7.966C75.3673 8.43267 75.4979 9.02067 75.4979 9.73V14H74.5039V9.828C74.5039 9.05333 74.3079 8.47 73.9159 8.078C73.5333 7.67667 72.9919 7.476 72.2919 7.476C71.7693 7.476 71.3119 7.58333 70.9199 7.798C70.5373 8.00333 70.2386 8.30667 70.0239 8.708C69.8186 9.1 69.7159 9.576 69.7159 10.136V14H68.7219V3.612H69.7159V8.666L69.5199 8.288C69.7533 7.756 70.1266 7.34067 70.6399 7.042C71.1533 6.734 71.7646 6.58 72.4739 6.58ZM91.0309 6.58C91.6283 6.58 92.1463 6.69667 92.5849 6.93C93.0329 7.154 93.3783 7.49933 93.6209 7.966C93.8729 8.43267 93.9989 9.02067 93.9989 9.73V14H93.0049V9.828C93.0049 9.05333 92.8183 8.47 92.4449 8.078C92.0809 7.67667 91.5629 7.476 90.8909 7.476C90.3869 7.476 89.9483 7.58333 89.5749 7.798C89.2109 8.00333 88.9263 8.30667 88.7209 8.708C88.5249 9.1 88.4269 9.576 88.4269 10.136V14H87.4329V9.828C87.4329 9.05333 87.2463 8.47 86.8729 8.078C86.4996 7.67667 85.9769 7.476 85.3049 7.476C84.8103 7.476 84.3763 7.58333 84.0029 7.798C83.6296 8.00333 83.3403 8.30667 83.1349 8.708C82.9389 9.1 82.8409 9.576 82.8409 10.136V14H81.8469V6.65H82.7989V8.638L82.6449 8.288C82.8689 7.756 83.2283 7.34067 83.7229 7.042C84.2269 6.734 84.8196 6.58 85.5009 6.58C86.2196 6.58 86.8309 6.762 87.3349 7.126C87.8389 7.48067 88.1656 8.01733 88.3149 8.736L87.9229 8.582C88.1376 7.98467 88.5156 7.504 89.0569 7.14C89.6076 6.76667 90.2656 6.58 91.0309 6.58ZM99.6906 14.07C98.9813 14.07 98.3419 13.9113 97.7726 13.594C97.2126 13.2673 96.7693 12.824 96.4426 12.264C96.1159 11.6947 95.9526 11.046 95.9526 10.318C95.9526 9.58067 96.1159 8.932 96.4426 8.372C96.7693 7.812 97.2126 7.37333 97.7726 7.056C98.3326 6.73867 98.9719 6.58 99.6906 6.58C100.419 6.58 101.063 6.73867 101.623 7.056C102.192 7.37333 102.635 7.812 102.953 8.372C103.279 8.932 103.443 9.58067 103.443 10.318C103.443 11.046 103.279 11.6947 102.953 12.264C102.635 12.824 102.192 13.2673 101.623 13.594C101.053 13.9113 100.409 14.07 99.6906 14.07ZM99.6906 13.188C100.223 13.188 100.694 13.0713 101.105 12.838C101.515 12.5953 101.837 12.2593 102.071 11.83C102.313 11.3913 102.435 10.8873 102.435 10.318C102.435 9.73933 102.313 9.23533 102.071 8.806C101.837 8.37667 101.515 8.04533 101.105 7.812C100.694 7.56933 100.227 7.448 99.7046 7.448C99.1819 7.448 98.7153 7.56933 98.3046 7.812C97.8939 8.04533 97.5673 8.37667 97.3246 8.806C97.0819 9.23533 96.9606 9.73933 96.9606 10.318C96.9606 10.8873 97.0819 11.3913 97.3246 11.83C97.5673 12.2593 97.8939 12.5953 98.3046 12.838C98.7153 13.0713 99.1773 13.188 99.6906 13.188ZM107.157 14L103.895 6.65H104.931L107.927 13.468H107.437L110.475 6.65H111.455L108.179 14H107.157ZM112.855 14V6.65H113.849V14H112.855ZM113.359 5.026C113.153 5.026 112.981 4.956 112.841 4.816C112.701 4.676 112.631 4.508 112.631 4.312C112.631 4.116 112.701 3.95267 112.841 3.822C112.981 3.682 113.153 3.612 113.359 3.612C113.564 3.612 113.737 3.67733 113.877 3.808C114.017 3.93867 114.087 4.102 114.087 4.298C114.087 4.50333 114.017 4.676 113.877 4.816C113.746 4.956 113.573 5.026 113.359 5.026ZM119.737 14.07C118.971 14.07 118.299 13.9113 117.721 13.594C117.142 13.2673 116.689 12.824 116.363 12.264C116.036 11.6947 115.873 11.046 115.873 10.318C115.873 9.59 116.027 8.946 116.335 8.386C116.652 7.826 117.081 7.38733 117.623 7.07C118.173 6.74333 118.789 6.58 119.471 6.58C120.161 6.58 120.773 6.73867 121.305 7.056C121.846 7.364 122.271 7.80267 122.579 8.372C122.887 8.932 123.041 9.58067 123.041 10.318C123.041 10.3647 123.036 10.416 123.027 10.472C123.027 10.5187 123.027 10.57 123.027 10.626H116.629V9.884H122.495L122.103 10.178C122.103 9.646 121.986 9.17467 121.753 8.764C121.529 8.344 121.221 8.01733 120.829 7.784C120.437 7.55067 119.984 7.434 119.471 7.434C118.967 7.434 118.514 7.55067 118.113 7.784C117.711 8.01733 117.399 8.344 117.175 8.764C116.951 9.184 116.839 9.66467 116.839 10.206V10.36C116.839 10.92 116.96 11.4147 117.203 11.844C117.455 12.264 117.8 12.5953 118.239 12.838C118.687 13.0713 119.195 13.188 119.765 13.188C120.213 13.188 120.628 13.1087 121.011 12.95C121.403 12.7913 121.739 12.5487 122.019 12.222L122.579 12.866C122.252 13.258 121.841 13.5567 121.347 13.762C120.861 13.9673 120.325 14.07 119.737 14.07ZM124.462 16.044L125.078 13.454L125.19 14.056C124.975 14.056 124.793 13.986 124.644 13.846C124.504 13.706 124.434 13.524 124.434 13.3C124.434 13.076 124.504 12.894 124.644 12.754C124.793 12.614 124.97 12.544 125.176 12.544C125.39 12.544 125.563 12.6187 125.694 12.768C125.834 12.9173 125.904 13.0947 125.904 13.3C125.904 13.3747 125.899 13.4493 125.89 13.524C125.88 13.5987 125.862 13.6827 125.834 13.776C125.806 13.8693 125.768 13.9813 125.722 14.112L125.134 16.044H124.462ZM134.747 14.07C134.019 14.07 133.365 13.9113 132.787 13.594C132.217 13.2673 131.769 12.824 131.443 12.264C131.116 11.6947 130.953 11.046 130.953 10.318C130.953 9.58067 131.116 8.932 131.443 8.372C131.769 7.812 132.217 7.37333 132.787 7.056C133.365 6.73867 134.019 6.58 134.747 6.58C135.372 6.58 135.937 6.70133 136.441 6.944C136.945 7.18667 137.341 7.55067 137.631 8.036L136.889 8.54C136.637 8.16667 136.324 7.89133 135.951 7.714C135.577 7.53667 135.171 7.448 134.733 7.448C134.21 7.448 133.739 7.56933 133.319 7.812C132.899 8.04533 132.567 8.37667 132.325 8.806C132.082 9.23533 131.961 9.73933 131.961 10.318C131.961 10.8967 132.082 11.4007 132.325 11.83C132.567 12.2593 132.899 12.5953 133.319 12.838C133.739 13.0713 134.21 13.188 134.733 13.188C135.171 13.188 135.577 13.0993 135.951 12.922C136.324 12.7447 136.637 12.474 136.889 12.11L137.631 12.614C137.341 13.09 136.945 13.454 136.441 13.706C135.937 13.9487 135.372 14.07 134.747 14.07ZM139.474 14V6.65H140.468V14H139.474ZM139.978 5.026C139.773 5.026 139.6 4.956 139.46 4.816C139.32 4.676 139.25 4.508 139.25 4.312C139.25 4.116 139.32 3.95267 139.46 3.822C139.6 3.682 139.773 3.612 139.978 3.612C140.183 3.612 140.356 3.67733 140.496 3.808C140.636 3.93867 140.706 4.102 140.706 4.298C140.706 4.50333 140.636 4.676 140.496 4.816C140.365 4.956 140.193 5.026 139.978 5.026ZM146.986 6.58C147.583 6.58 148.106 6.69667 148.554 6.93C149.011 7.154 149.366 7.49933 149.618 7.966C149.879 8.43267 150.01 9.02067 150.01 9.73V14H149.016V9.828C149.016 9.05333 148.82 8.47 148.428 8.078C148.045 7.67667 147.504 7.476 146.804 7.476C146.281 7.476 145.824 7.58333 145.432 7.798C145.049 8.00333 144.75 8.30667 144.536 8.708C144.33 9.1 144.228 9.576 144.228 10.136V14H143.234V6.65H144.186V8.666L144.032 8.288C144.265 7.756 144.638 7.34067 145.152 7.042C145.665 6.734 146.276 6.58 146.986 6.58ZM155.817 14.07C155.051 14.07 154.379 13.9113 153.801 13.594C153.222 13.2673 152.769 12.824 152.443 12.264C152.116 11.6947 151.953 11.046 151.953 10.318C151.953 9.59 152.107 8.946 152.415 8.386C152.732 7.826 153.161 7.38733 153.703 7.07C154.253 6.74333 154.869 6.58 155.551 6.58C156.241 6.58 156.853 6.73867 157.385 7.056C157.926 7.364 158.351 7.80267 158.659 8.372C158.967 8.932 159.121 9.58067 159.121 10.318C159.121 10.3647 159.116 10.416 159.107 10.472C159.107 10.5187 159.107 10.57 159.107 10.626H152.709V9.884H158.575L158.183 10.178C158.183 9.646 158.066 9.17467 157.833 8.764C157.609 8.344 157.301 8.01733 156.909 7.784C156.517 7.55067 156.064 7.434 155.551 7.434C155.047 7.434 154.594 7.55067 154.193 7.784C153.791 8.01733 153.479 8.344 153.255 8.764C153.031 9.184 152.919 9.66467 152.919 10.206V10.36C152.919 10.92 153.04 11.4147 153.283 11.844C153.535 12.264 153.88 12.5953 154.319 12.838C154.767 13.0713 155.275 13.188 155.845 13.188C156.293 13.188 156.708 13.1087 157.091 12.95C157.483 12.7913 157.819 12.5487 158.099 12.222L158.659 12.866C158.332 13.258 157.921 13.5567 157.427 13.762C156.941 13.9673 156.405 14.07 155.817 14.07ZM170.328 6.58C170.925 6.58 171.443 6.69667 171.882 6.93C172.33 7.154 172.675 7.49933 172.918 7.966C173.17 8.43267 173.296 9.02067 173.296 9.73V14H172.302V9.828C172.302 9.05333 172.115 8.47 171.742 8.078C171.378 7.67667 170.86 7.476 170.188 7.476C169.684 7.476 169.245 7.58333 168.872 7.798C168.508 8.00333 168.223 8.30667 168.018 8.708C167.822 9.1 167.724 9.576 167.724 10.136V14H166.73V9.828C166.73 9.05333 166.543 8.47 166.17 8.078C165.796 7.67667 165.274 7.476 164.602 7.476C164.107 7.476 163.673 7.58333 163.3 7.798C162.926 8.00333 162.637 8.30667 162.432 8.708C162.236 9.1 162.138 9.576 162.138 10.136V14H161.144V6.65H162.096V8.638L161.942 8.288C162.166 7.756 162.525 7.34067 163.02 7.042C163.524 6.734 164.116 6.58 164.798 6.58C165.516 6.58 166.128 6.762 166.632 7.126C167.136 7.48067 167.462 8.01733 167.612 8.736L167.22 8.582C167.434 7.98467 167.812 7.504 168.354 7.14C168.904 6.76667 169.562 6.58 170.328 6.58ZM180.597 14V12.376L180.555 12.11V9.394C180.555 8.76867 180.378 8.288 180.023 7.952C179.678 7.616 179.16 7.448 178.469 7.448C177.993 7.448 177.541 7.52733 177.111 7.686C176.682 7.84467 176.318 8.05467 176.019 8.316L175.571 7.574C175.945 7.25667 176.393 7.014 176.915 6.846C177.438 6.66867 177.989 6.58 178.567 6.58C179.519 6.58 180.252 6.818 180.765 7.294C181.288 7.76067 181.549 8.47467 181.549 9.436V14H180.597ZM178.063 14.07C177.513 14.07 177.032 13.9813 176.621 13.804C176.22 13.6173 175.912 13.3653 175.697 13.048C175.483 12.7213 175.375 12.348 175.375 11.928C175.375 11.5453 175.464 11.2 175.641 10.892C175.828 10.5747 176.127 10.3227 176.537 10.136C176.957 9.94 177.517 9.842 178.217 9.842H180.751V10.584H178.245C177.536 10.584 177.041 10.71 176.761 10.962C176.491 11.214 176.355 11.5267 176.355 11.9C176.355 12.32 176.519 12.656 176.845 12.908C177.172 13.16 177.629 13.286 178.217 13.286C178.777 13.286 179.258 13.16 179.659 12.908C180.07 12.6467 180.369 12.2733 180.555 11.788L180.779 12.474C180.593 12.9593 180.266 13.3467 179.799 13.636C179.342 13.9253 178.763 14.07 178.063 14.07ZM183.647 16.044L184.263 13.454L184.375 14.056C184.161 14.056 183.979 13.986 183.829 13.846C183.689 13.706 183.619 13.524 183.619 13.3C183.619 13.076 183.689 12.894 183.829 12.754C183.979 12.614 184.156 12.544 184.361 12.544C184.576 12.544 184.749 12.6187 184.879 12.768C185.019 12.9173 185.089 13.0947 185.089 13.3C185.089 13.3747 185.085 13.4493 185.075 13.524C185.066 13.5987 185.047 13.6827 185.019 13.776C184.991 13.8693 184.954 13.9813 184.907 14.112L184.319 16.044H183.647ZM194.016 16.786C193.344 16.786 192.7 16.688 192.084 16.492C191.468 16.296 190.969 16.016 190.586 15.652L191.09 14.896C191.435 15.204 191.86 15.4467 192.364 15.624C192.877 15.8107 193.419 15.904 193.988 15.904C194.921 15.904 195.607 15.6847 196.046 15.246C196.485 14.8167 196.704 14.1447 196.704 13.23V11.396L196.844 10.136L196.746 8.876V6.65H197.698V13.104C197.698 14.3733 197.385 15.302 196.76 15.89C196.144 16.4873 195.229 16.786 194.016 16.786ZM193.834 13.72C193.134 13.72 192.504 13.5707 191.944 13.272C191.384 12.964 190.941 12.5393 190.614 11.998C190.297 11.4567 190.138 10.836 190.138 10.136C190.138 9.436 190.297 8.82 190.614 8.288C190.941 7.74667 191.384 7.32667 191.944 7.028C192.504 6.72933 193.134 6.58 193.834 6.58C194.487 6.58 195.075 6.71533 195.598 6.986C196.121 7.25667 196.536 7.658 196.844 8.19C197.152 8.722 197.306 9.37067 197.306 10.136C197.306 10.9013 197.152 11.55 196.844 12.082C196.536 12.614 196.121 13.02 195.598 13.3C195.075 13.58 194.487 13.72 193.834 13.72ZM193.932 12.838C194.473 12.838 194.954 12.726 195.374 12.502C195.794 12.2687 196.125 11.9513 196.368 11.55C196.611 11.1393 196.732 10.668 196.732 10.136C196.732 9.604 196.611 9.13733 196.368 8.736C196.125 8.33467 195.794 8.022 195.374 7.798C194.954 7.56467 194.473 7.448 193.932 7.448C193.4 7.448 192.919 7.56467 192.49 7.798C192.07 8.022 191.739 8.33467 191.496 8.736C191.263 9.13733 191.146 9.604 191.146 10.136C191.146 10.668 191.263 11.1393 191.496 11.55C191.739 11.9513 192.07 12.2687 192.49 12.502C192.919 12.726 193.4 12.838 193.932 12.838ZM203.586 14.07C202.821 14.07 202.149 13.9113 201.57 13.594C200.991 13.2673 200.539 12.824 200.212 12.264C199.885 11.6947 199.722 11.046 199.722 10.318C199.722 9.59 199.876 8.946 200.184 8.386C200.501 7.826 200.931 7.38733 201.472 7.07C202.023 6.74333 202.639 6.58 203.32 6.58C204.011 6.58 204.622 6.73867 205.154 7.056C205.695 7.364 206.12 7.80267 206.428 8.372C206.736 8.932 206.89 9.58067 206.89 10.318C206.89 10.3647 206.885 10.416 206.876 10.472C206.876 10.5187 206.876 10.57 206.876 10.626H200.478V9.884H206.344L205.952 10.178C205.952 9.646 205.835 9.17467 205.602 8.764C205.378 8.344 205.07 8.01733 204.678 7.784C204.286 7.55067 203.833 7.434 203.32 7.434C202.816 7.434 202.363 7.55067 201.962 7.784C201.561 8.01733 201.248 8.344 201.024 8.764C200.8 9.184 200.688 9.66467 200.688 10.206V10.36C200.688 10.92 200.809 11.4147 201.052 11.844C201.304 12.264 201.649 12.5953 202.088 12.838C202.536 13.0713 203.045 13.188 203.614 13.188C204.062 13.188 204.477 13.1087 204.86 12.95C205.252 12.7913 205.588 12.5487 205.868 12.222L206.428 12.866C206.101 13.258 205.691 13.5567 205.196 13.762C204.711 13.9673 204.174 14.07 203.586 14.07ZM212.665 6.58C213.263 6.58 213.785 6.69667 214.233 6.93C214.691 7.154 215.045 7.49933 215.297 7.966C215.559 8.43267 215.689 9.02067 215.689 9.73V14H214.695V9.828C214.695 9.05333 214.499 8.47 214.107 8.078C213.725 7.67667 213.183 7.476 212.483 7.476C211.961 7.476 211.503 7.58333 211.111 7.798C210.729 8.00333 210.43 8.30667 210.215 8.708C210.01 9.1 209.907 9.576 209.907 10.136V14H208.913V6.65H209.865V8.666L209.711 8.288C209.945 7.756 210.318 7.34067 210.831 7.042C211.345 6.734 211.956 6.58 212.665 6.58ZM218.374 14V6.65H219.326V8.652L219.228 8.302C219.434 7.742 219.779 7.31733 220.264 7.028C220.75 6.72933 221.352 6.58 222.07 6.58V7.546C222.033 7.546 221.996 7.546 221.958 7.546C221.921 7.53667 221.884 7.532 221.846 7.532C221.072 7.532 220.465 7.77 220.026 8.246C219.588 8.71267 219.368 9.38 219.368 10.248V14H218.374ZM226.938 14.07C226.172 14.07 225.5 13.9113 224.922 13.594C224.343 13.2673 223.89 12.824 223.564 12.264C223.237 11.6947 223.074 11.046 223.074 10.318C223.074 9.59 223.228 8.946 223.536 8.386C223.853 7.826 224.282 7.38733 224.824 7.07C225.374 6.74333 225.99 6.58 226.672 6.58C227.362 6.58 227.974 6.73867 228.506 7.056C229.047 7.364 229.472 7.80267 229.78 8.372C230.088 8.932 230.242 9.58067 230.242 10.318C230.242 10.3647 230.237 10.416 230.228 10.472C230.228 10.5187 230.228 10.57 230.228 10.626H223.83V9.884H229.696L229.304 10.178C229.304 9.646 229.187 9.17467 228.954 8.764C228.73 8.344 228.422 8.01733 228.03 7.784C227.638 7.55067 227.185 7.434 226.672 7.434C226.168 7.434 225.715 7.55067 225.314 7.784C224.912 8.01733 224.6 8.344 224.376 8.764C224.152 9.184 224.04 9.66467 224.04 10.206V10.36C224.04 10.92 224.161 11.4147 224.404 11.844C224.656 12.264 225.001 12.5953 225.44 12.838C225.888 13.0713 226.396 13.188 226.966 13.188C227.414 13.188 227.829 13.1087 228.212 12.95C228.604 12.7913 228.94 12.5487 229.22 12.222L229.78 12.866C229.453 13.258 229.042 13.5567 228.548 13.762C228.062 13.9673 227.526 14.07 226.938 14.07ZM232.363 14.07C232.158 14.07 231.98 13.9953 231.831 13.846C231.691 13.6967 231.621 13.5147 231.621 13.3C231.621 13.076 231.691 12.894 231.831 12.754C231.98 12.614 232.158 12.544 232.363 12.544C232.568 12.544 232.741 12.614 232.881 12.754C233.03 12.894 233.105 13.076 233.105 13.3C233.105 13.5147 233.03 13.6967 232.881 13.846C232.741 13.9953 232.568 14.07 232.363 14.07ZM235.33 14.07C235.124 14.07 234.947 13.9953 234.798 13.846C234.658 13.6967 234.588 13.5147 234.588 13.3C234.588 13.076 234.658 12.894 234.798 12.754C234.947 12.614 235.124 12.544 235.33 12.544C235.535 12.544 235.708 12.614 235.848 12.754C235.997 12.894 236.072 13.076 236.072 13.3C236.072 13.5147 235.997 13.6967 235.848 13.846C235.708 13.9953 235.535 14.07 235.33 14.07ZM238.297 14.07C238.091 14.07 237.914 13.9953 237.765 13.846C237.625 13.6967 237.555 13.5147 237.555 13.3C237.555 13.076 237.625 12.894 237.765 12.754C237.914 12.614 238.091 12.544 238.297 12.544C238.502 12.544 238.675 12.614 238.815 12.754C238.964 12.894 239.039 13.076 239.039 13.3C239.039 13.5147 238.964 13.6967 238.815 13.846C238.675 13.9953 238.502 14.07 238.297 14.07Z" fill="white" fill-opacity="0.7"/>
</svg>
