<svg width="283" height="15" viewBox="0 0 283 15" fill="none" xmlns="http://www.w3.org/2000/svg">
<path d="M28.432 11.2621L27.748 9.37808H23.968L23.284 11.2621H22.096L25.228 2.86208H26.488L29.62 11.2621H28.432ZM24.352 8.33408H27.364L25.852 4.19408L24.352 8.33408ZM34.4686 5.26208H35.5966L33.1966 11.2621H31.9726L29.5726 5.26208H30.7006L32.5846 10.1461L34.4686 5.26208ZM41.2131 5.26208H42.2571V11.2621H41.2131V10.2301C40.6931 11.0221 39.9371 11.4181 38.9451 11.4181C38.1051 11.4181 37.3891 11.1141 36.7971 10.5061C36.2051 9.89008 35.9091 9.14208 35.9091 8.26208C35.9091 7.38208 36.2051 6.63808 36.7971 6.03008C37.3891 5.41408 38.1051 5.10608 38.9451 5.10608C39.9371 5.10608 40.6931 5.50208 41.2131 6.29408V5.26208ZM39.0771 10.4101C39.6851 10.4101 40.1931 10.2061 40.6011 9.79808C41.0091 9.38208 41.2131 8.87008 41.2131 8.26208C41.2131 7.65408 41.0091 7.14608 40.6011 6.73808C40.1931 6.32208 39.6851 6.11408 39.0771 6.11408C38.4771 6.11408 37.9731 6.32208 37.5651 6.73808C37.1571 7.14608 36.9531 7.65408 36.9531 8.26208C36.9531 8.87008 37.1571 9.38208 37.5651 9.79808C37.9731 10.2061 38.4771 10.4101 39.0771 10.4101ZM44.3669 4.17008C44.1669 4.17008 43.9989 4.10208 43.8629 3.96608C43.7269 3.83008 43.6589 3.66608 43.6589 3.47408C43.6589 3.28208 43.7269 3.11808 43.8629 2.98208C43.9989 2.83808 44.1669 2.76608 44.3669 2.76608C44.5589 2.76608 44.7229 2.83808 44.8589 2.98208C44.9949 3.11808 45.0629 3.28208 45.0629 3.47408C45.0629 3.66608 44.9949 3.83008 44.8589 3.96608C44.7229 4.10208 44.5589 4.17008 44.3669 4.17008ZM43.8389 11.2621V5.26208H44.8829V11.2621H43.8389ZM46.4756 11.2621V2.50208H47.5196V11.2621H46.4756ZM54.0803 5.26208H55.1243V11.2621H54.0803V10.2301C53.5603 11.0221 52.8043 11.4181 51.8123 11.4181C50.9723 11.4181 50.2563 11.1141 49.6643 10.5061C49.0723 9.89008 48.7763 9.14208 48.7763 8.26208C48.7763 7.38208 49.0723 6.63808 49.6643 6.03008C50.2563 5.41408 50.9723 5.10608 51.8123 5.10608C52.8043 5.10608 53.5603 5.50208 54.0803 6.29408V5.26208ZM51.9443 10.4101C52.5523 10.4101 53.0603 10.2061 53.4683 9.79808C53.8763 9.38208 54.0803 8.87008 54.0803 8.26208C54.0803 7.65408 53.8763 7.14608 53.4683 6.73808C53.0603 6.32208 52.5523 6.11408 51.9443 6.11408C51.3443 6.11408 50.8403 6.32208 50.4323 6.73808C50.0243 7.14608 49.8203 7.65408 49.8203 8.26208C49.8203 8.87008 50.0243 9.38208 50.4323 9.79808C50.8403 10.2061 51.3443 10.4101 51.9443 10.4101ZM60.0181 5.10608C60.8581 5.10608 61.5741 5.41408 62.1661 6.03008C62.7581 6.63808 63.0541 7.38208 63.0541 8.26208C63.0541 9.14208 62.7581 9.89008 62.1661 10.5061C61.5741 11.1141 60.8581 11.4181 60.0181 11.4181C59.0261 11.4181 58.2701 11.0221 57.7501 10.2301V11.2621H56.7061V2.86208H57.7501V6.29408C58.2701 5.50208 59.0261 5.10608 60.0181 5.10608ZM59.8861 10.4101C60.4861 10.4101 60.9901 10.2061 61.3981 9.79808C61.8061 9.38208 62.0101 8.87008 62.0101 8.26208C62.0101 7.65408 61.8061 7.14608 61.3981 6.73808C60.9901 6.32208 60.4861 6.11408 59.8861 6.11408C59.2781 6.11408 58.7701 6.32208 58.3621 6.73808C57.9541 7.14608 57.7501 7.65408 57.7501 8.26208C57.7501 8.87008 57.9541 9.38208 58.3621 9.79808C58.7701 10.2061 59.2781 10.4101 59.8861 10.4101ZM64.2998 11.2621V2.50208H65.3438V11.2621H64.2998ZM67.6685 8.74208C67.7725 9.27808 68.0165 9.69408 68.4005 9.99008C68.7925 10.2861 69.2725 10.4341 69.8405 10.4341C70.6325 10.4341 71.2085 10.1421 71.5685 9.55808L72.4565 10.0621C71.8725 10.9661 70.9925 11.4181 69.8165 11.4181C68.8645 11.4181 68.0885 11.1221 67.4885 10.5301C66.8965 9.93008 66.6005 9.17408 66.6005 8.26208C66.6005 7.35808 66.8925 6.60608 67.4765 6.00608C68.0605 5.40608 68.8165 5.10608 69.7445 5.10608C70.6245 5.10608 71.3405 5.41808 71.8925 6.04208C72.4525 6.65808 72.7325 7.40208 72.7325 8.27408C72.7325 8.42608 72.7205 8.58208 72.6965 8.74208H67.6685ZM69.7445 6.09008C69.1845 6.09008 68.7205 6.25008 68.3525 6.57008C67.9845 6.88208 67.7565 7.30208 67.6685 7.83008H71.6765C71.5885 7.26208 71.3645 6.83008 71.0045 6.53408C70.6445 6.23808 70.2245 6.09008 69.7445 6.09008Z" fill="white"/>
<circle cx="6" cy="7.26208" r="6" fill="#323232"/>
<path d="M133.88 11.2621L131.996 8.04608H130.016V11.2621H128.9V2.86208H132.26C132.98 2.86208 133.596 3.11808 134.108 3.63008C134.62 4.13408 134.876 4.74608 134.876 5.46608C134.876 6.01008 134.712 6.50608 134.384 6.95408C134.064 7.40208 133.648 7.71808 133.136 7.90208L135.116 11.2621H133.88ZM130.016 3.90608V7.03808H132.26C132.676 7.03808 133.028 6.88608 133.316 6.58208C133.612 6.27008 133.76 5.89808 133.76 5.46608C133.76 5.03408 133.612 4.66608 133.316 4.36208C133.028 4.05808 132.676 3.90608 132.26 3.90608H130.016ZM136.555 8.74208C136.659 9.27808 136.903 9.69408 137.287 9.99008C137.679 10.2861 138.159 10.4341 138.727 10.4341C139.519 10.4341 140.095 10.1421 140.455 9.55808L141.343 10.0621C140.759 10.9661 139.879 11.4181 138.703 11.4181C137.751 11.4181 136.975 11.1221 136.375 10.5301C135.783 9.93008 135.487 9.17408 135.487 8.26208C135.487 7.35808 135.779 6.60608 136.363 6.00608C136.947 5.40608 137.703 5.10608 138.631 5.10608C139.511 5.10608 140.227 5.41808 140.779 6.04208C141.339 6.65808 141.619 7.40208 141.619 8.27408C141.619 8.42608 141.607 8.58208 141.583 8.74208H136.555ZM138.631 6.09008C138.071 6.09008 137.607 6.25008 137.239 6.57008C136.871 6.88208 136.643 7.30208 136.555 7.83008H140.563C140.475 7.26208 140.251 6.83008 139.891 6.53408C139.531 6.23808 139.111 6.09008 138.631 6.09008ZM143.485 6.88208C143.485 7.11408 143.601 7.30208 143.833 7.44608C144.065 7.58208 144.345 7.69408 144.673 7.78208C145.001 7.86208 145.329 7.95808 145.657 8.07008C145.985 8.17408 146.265 8.35808 146.497 8.62208C146.729 8.87808 146.845 9.21008 146.845 9.61808C146.845 10.1621 146.633 10.5981 146.209 10.9261C145.793 11.2541 145.257 11.4181 144.601 11.4181C144.017 11.4181 143.517 11.2901 143.101 11.0341C142.685 10.7781 142.389 10.4381 142.213 10.0141L143.113 9.49808C143.209 9.78608 143.389 10.0141 143.653 10.1821C143.917 10.3501 144.233 10.4341 144.601 10.4341C144.945 10.4341 145.229 10.3701 145.453 10.2421C145.677 10.1061 145.789 9.89808 145.789 9.61808C145.789 9.38608 145.673 9.20208 145.441 9.06608C145.209 8.92208 144.929 8.81008 144.601 8.73008C144.273 8.64208 143.945 8.54208 143.617 8.43008C143.289 8.31808 143.009 8.13408 142.777 7.87808C142.545 7.62208 142.429 7.29408 142.429 6.89408C142.429 6.37408 142.629 5.94608 143.029 5.61008C143.437 5.27408 143.945 5.10608 144.553 5.10608C145.041 5.10608 145.473 5.21808 145.849 5.44208C146.233 5.65808 146.521 5.96208 146.713 6.35408L145.837 6.84608C145.621 6.33408 145.193 6.07808 144.553 6.07808C144.257 6.07808 144.005 6.15008 143.797 6.29408C143.589 6.43008 143.485 6.62608 143.485 6.88208ZM148.649 8.74208C148.753 9.27808 148.997 9.69408 149.381 9.99008C149.773 10.2861 150.253 10.4341 150.821 10.4341C151.613 10.4341 152.189 10.1421 152.549 9.55808L153.437 10.0621C152.853 10.9661 151.973 11.4181 150.797 11.4181C149.845 11.4181 149.069 11.1221 148.469 10.5301C147.877 9.93008 147.581 9.17408 147.581 8.26208C147.581 7.35808 147.873 6.60608 148.457 6.00608C149.041 5.40608 149.797 5.10608 150.725 5.10608C151.605 5.10608 152.321 5.41808 152.873 6.04208C153.433 6.65808 153.713 7.40208 153.713 8.27408C153.713 8.42608 153.701 8.58208 153.677 8.74208H148.649ZM150.725 6.09008C150.165 6.09008 149.701 6.25008 149.333 6.57008C148.965 6.88208 148.737 7.30208 148.649 7.83008H152.657C152.569 7.26208 152.345 6.83008 151.985 6.53408C151.625 6.23808 151.205 6.09008 150.725 6.09008ZM155.957 6.27008C156.301 5.52608 156.925 5.15408 157.829 5.15408V6.24608C157.317 6.22208 156.877 6.35808 156.509 6.65408C156.141 6.95008 155.957 7.42608 155.957 8.08208V11.2621H154.913V5.26208H155.957V6.27008ZM163.051 5.26208H164.179L161.779 11.2621H160.555L158.155 5.26208H159.283L161.167 10.1461L163.051 5.26208ZM165.559 8.74208C165.663 9.27808 165.907 9.69408 166.291 9.99008C166.683 10.2861 167.163 10.4341 167.731 10.4341C168.523 10.4341 169.099 10.1421 169.459 9.55808L170.347 10.0621C169.763 10.9661 168.883 11.4181 167.707 11.4181C166.755 11.4181 165.979 11.1221 165.379 10.5301C164.787 9.93008 164.491 9.17408 164.491 8.26208C164.491 7.35808 164.783 6.60608 165.367 6.00608C165.951 5.40608 166.707 5.10608 167.635 5.10608C168.515 5.10608 169.231 5.41808 169.783 6.04208C170.343 6.65808 170.623 7.40208 170.623 8.27408C170.623 8.42608 170.611 8.58208 170.587 8.74208H165.559ZM167.635 6.09008C167.075 6.09008 166.611 6.25008 166.243 6.57008C165.875 6.88208 165.647 7.30208 165.559 7.83008H169.567C169.479 7.26208 169.255 6.83008 168.895 6.53408C168.535 6.23808 168.115 6.09008 167.635 6.09008ZM176.78 2.86208H177.824V11.2621H176.78V10.2301C176.26 11.0221 175.504 11.4181 174.512 11.4181C173.672 11.4181 172.956 11.1141 172.364 10.5061C171.772 9.89008 171.476 9.14208 171.476 8.26208C171.476 7.38208 171.772 6.63808 172.364 6.03008C172.956 5.41408 173.672 5.10608 174.512 5.10608C175.504 5.10608 176.26 5.50208 176.78 6.29408V2.86208ZM174.644 10.4101C175.252 10.4101 175.76 10.2061 176.168 9.79808C176.576 9.38208 176.78 8.87008 176.78 8.26208C176.78 7.65408 176.576 7.14608 176.168 6.73808C175.76 6.32208 175.252 6.11408 174.644 6.11408C174.044 6.11408 173.54 6.32208 173.132 6.73808C172.724 7.14608 172.52 7.65408 172.52 8.26208C172.52 8.87008 172.724 9.38208 173.132 9.79808C173.54 10.2061 174.044 10.4101 174.644 10.4101Z" fill="white"/>
<circle cx="111" cy="7.26208" r="6" fill="#CECECE"/>
<path d="M236.612 11.4181C235.828 11.4181 235.156 11.2341 234.596 10.8661C234.044 10.4981 233.656 9.99408 233.432 9.35408L234.392 8.80208C234.72 9.81808 235.468 10.3261 236.636 10.3261C237.212 10.3261 237.652 10.2101 237.956 9.97808C238.26 9.73808 238.412 9.42208 238.412 9.03008C238.412 8.63008 238.26 8.33008 237.956 8.13008C237.652 7.93008 237.144 7.71808 236.432 7.49408C236.08 7.38208 235.812 7.29408 235.628 7.23008C235.444 7.15808 235.212 7.05408 234.932 6.91808C234.66 6.77408 234.456 6.63008 234.32 6.48608C234.184 6.33408 234.06 6.13808 233.948 5.89808C233.844 5.65808 233.792 5.38608 233.792 5.08208C233.792 4.35408 234.048 3.77808 234.56 3.35408C235.072 2.92208 235.696 2.70608 236.432 2.70608C237.096 2.70608 237.672 2.87408 238.16 3.21008C238.656 3.54608 239.028 3.99008 239.276 4.54208L238.34 5.08208C237.98 4.21808 237.344 3.78608 236.432 3.78608C235.976 3.78608 235.608 3.89808 235.328 4.12208C235.048 4.34608 234.908 4.65008 234.908 5.03408C234.908 5.40208 235.04 5.68208 235.304 5.87408C235.568 6.06608 236.024 6.26608 236.672 6.47408C236.904 6.54608 237.068 6.59808 237.164 6.63008C237.26 6.66208 237.408 6.71808 237.608 6.79808C237.816 6.87808 237.968 6.94208 238.064 6.99008C238.16 7.03808 238.288 7.10608 238.448 7.19408C238.616 7.28208 238.74 7.36608 238.82 7.44608C238.9 7.52608 238.992 7.62608 239.096 7.74608C239.208 7.85808 239.288 7.97408 239.336 8.09408C239.384 8.21408 239.424 8.35408 239.456 8.51408C239.496 8.66608 239.516 8.83008 239.516 9.00608C239.516 9.74208 239.248 10.3301 238.712 10.7701C238.176 11.2021 237.476 11.4181 236.612 11.4181ZM241.602 8.74208C241.706 9.27808 241.95 9.69408 242.334 9.99008C242.726 10.2861 243.206 10.4341 243.774 10.4341C244.566 10.4341 245.142 10.1421 245.502 9.55808L246.39 10.0621C245.806 10.9661 244.926 11.4181 243.75 11.4181C242.798 11.4181 242.022 11.1221 241.422 10.5301C240.83 9.93008 240.534 9.17408 240.534 8.26208C240.534 7.35808 240.826 6.60608 241.41 6.00608C241.994 5.40608 242.75 5.10608 243.678 5.10608C244.558 5.10608 245.274 5.41808 245.826 6.04208C246.386 6.65808 246.666 7.40208 246.666 8.27408C246.666 8.42608 246.654 8.58208 246.63 8.74208H241.602ZM243.678 6.09008C243.118 6.09008 242.654 6.25008 242.286 6.57008C241.918 6.88208 241.69 7.30208 241.602 7.83008H245.61C245.522 7.26208 245.298 6.83008 244.938 6.53408C244.578 6.23808 244.158 6.09008 243.678 6.09008ZM247.866 11.2621V2.50208H248.91V11.2621H247.866ZM251.235 8.74208C251.339 9.27808 251.583 9.69408 251.967 9.99008C252.359 10.2861 252.839 10.4341 253.407 10.4341C254.199 10.4341 254.775 10.1421 255.135 9.55808L256.023 10.0621C255.439 10.9661 254.559 11.4181 253.383 11.4181C252.431 11.4181 251.655 11.1221 251.055 10.5301C250.463 9.93008 250.167 9.17408 250.167 8.26208C250.167 7.35808 250.459 6.60608 251.043 6.00608C251.627 5.40608 252.383 5.10608 253.311 5.10608C254.191 5.10608 254.907 5.41808 255.459 6.04208C256.019 6.65808 256.299 7.40208 256.299 8.27408C256.299 8.42608 256.287 8.58208 256.263 8.74208H251.235ZM253.311 6.09008C252.751 6.09008 252.287 6.25008 251.919 6.57008C251.551 6.88208 251.323 7.30208 251.235 7.83008H255.243C255.155 7.26208 254.931 6.83008 254.571 6.53408C254.211 6.23808 253.791 6.09008 253.311 6.09008ZM260.307 11.4181C259.403 11.4181 258.651 11.1181 258.051 10.5181C257.451 9.91008 257.151 9.15808 257.151 8.26208C257.151 7.36608 257.451 6.61808 258.051 6.01808C258.651 5.41008 259.403 5.10608 260.307 5.10608C260.899 5.10608 261.431 5.25008 261.903 5.53808C262.375 5.81808 262.727 6.19808 262.959 6.67808L262.083 7.18208C261.931 6.86208 261.695 6.60608 261.375 6.41408C261.063 6.22208 260.707 6.12608 260.307 6.12608C259.707 6.12608 259.203 6.33008 258.795 6.73808C258.395 7.14608 258.195 7.65408 258.195 8.26208C258.195 8.86208 258.395 9.36608 258.795 9.77408C259.203 10.1821 259.707 10.3861 260.307 10.3861C260.707 10.3861 261.067 10.2941 261.387 10.1101C261.707 9.91808 261.951 9.66208 262.119 9.34208L263.007 9.85808C262.751 10.3301 262.383 10.7101 261.903 10.9981C261.423 11.2781 260.891 11.4181 260.307 11.4181ZM267.302 6.27008H265.706V9.52208C265.706 9.81808 265.762 10.0301 265.874 10.1581C265.994 10.2781 266.174 10.3421 266.414 10.3501C266.654 10.3501 266.95 10.3421 267.302 10.3261V11.2621C266.39 11.3821 265.722 11.3101 265.298 11.0461C264.874 10.7741 264.662 10.2661 264.662 9.52208V6.27008H263.474V5.26208H264.662V3.89408L265.706 3.58208V5.26208H267.302V6.27008ZM268.965 8.74208C269.069 9.27808 269.313 9.69408 269.697 9.99008C270.089 10.2861 270.569 10.4341 271.137 10.4341C271.929 10.4341 272.505 10.1421 272.865 9.55808L273.753 10.0621C273.169 10.9661 272.289 11.4181 271.113 11.4181C270.161 11.4181 269.385 11.1221 268.785 10.5301C268.193 9.93008 267.897 9.17408 267.897 8.26208C267.897 7.35808 268.189 6.60608 268.773 6.00608C269.357 5.40608 270.113 5.10608 271.041 5.10608C271.921 5.10608 272.637 5.41808 273.189 6.04208C273.749 6.65808 274.029 7.40208 274.029 8.27408C274.029 8.42608 274.017 8.58208 273.993 8.74208H268.965ZM271.041 6.09008C270.481 6.09008 270.017 6.25008 269.649 6.57008C269.281 6.88208 269.053 7.30208 268.965 7.83008H272.973C272.885 7.26208 272.661 6.83008 272.301 6.53408C271.941 6.23808 271.521 6.09008 271.041 6.09008ZM280.186 2.86208H281.23V11.2621H280.186V10.2301C279.666 11.0221 278.91 11.4181 277.918 11.4181C277.078 11.4181 276.362 11.1141 275.77 10.5061C275.178 9.89008 274.882 9.14208 274.882 8.26208C274.882 7.38208 275.178 6.63808 275.77 6.03008C276.362 5.41408 277.078 5.10608 277.918 5.10608C278.91 5.10608 279.666 5.50208 280.186 6.29408V2.86208ZM278.05 10.4101C278.658 10.4101 279.166 10.2061 279.574 9.79808C279.982 9.38208 280.186 8.87008 280.186 8.26208C280.186 7.65408 279.982 7.14608 279.574 6.73808C279.166 6.32208 278.658 6.11408 278.05 6.11408C277.45 6.11408 276.946 6.32208 276.538 6.73808C276.13 7.14608 275.926 7.65408 275.926 8.26208C275.926 8.87008 276.13 9.38208 276.538 9.79808C276.946 10.2061 277.45 10.4101 278.05 10.4101Z" fill="white"/>
<circle cx="216" cy="7.26208" r="6" fill="#FE0000"/>
</svg>
