<svg width="67" height="45" viewBox="0 0 67 45" fill="none" xmlns="http://www.w3.org/2000/svg">
<rect x="0.650146" y="0.803101" width="65.034" height="42.7368" rx="7.5" fill="white"/>
<rect x="0.650146" y="0.803101" width="65.034" height="42.7368" rx="7.5" stroke="#CCCCCC"/>
<path d="M55.1785 22.019C55.1785 29.4899 49.0947 35.5343 41.5749 35.5343C38.4008 35.5343 35.4911 34.4455 33.1861 32.6435C36.3602 30.1657 38.363 26.3364 38.363 22.019C38.363 17.7017 36.3225 13.8723 33.1861 11.3945C35.4911 9.59252 38.4008 8.50378 41.5749 8.50378C49.0947 8.50378 55.1785 14.5856 55.1785 22.019Z" fill="#F79E1B"/>
<path d="M33.1861 11.3945C33.1861 11.3945 33.1861 11.3945 33.1861 11.3945C36.3225 13.8723 38.363 17.7017 38.363 22.019C38.363 26.3364 36.3602 30.1657 33.1861 32.6435L33.1481 32.6435C30.0118 30.2032 27.9713 26.3364 27.9713 22.0191C27.9713 17.7017 30.0119 13.8724 33.1482 11.3946C33.1482 11.3946 33.1483 11.3947 33.1482 11.3946L33.1861 11.3945Z" fill="#FF5F00"/>
<path d="M27.9713 22.0191C27.9713 17.7017 30.0119 13.8724 33.1482 11.3946C30.8432 9.59259 27.9336 8.50384 24.7594 8.50384C17.2396 8.50384 11.1558 14.5482 11.1558 22.0191C11.1558 29.49 17.2396 35.5343 24.7594 35.5343C27.9336 35.5343 30.8431 34.4455 33.1481 32.6435C30.0118 30.2032 27.9713 26.3364 27.9713 22.0191Z" fill="#EB001B"/>
</svg>
